Patient4_TMGait_0pt6_02_right_01_EMG.mot
version=1
nRows=27
nColumns=33
inDegrees=no
endheader
time	1LAddLong	2LGlutMax	3LGlutMed	4LIliopsoas	5LSemiMemb	6LBicFemLong	7LRecFem	8LVastMed	9LVastLat	10LGasMed	11LTibAnt	12lTibPost	13LPeroneusLong	14LSol	15LExtDigLong	16LFlexDigLong	17RAddLong	18RGlutMax	19RGlutMed	20RIliopsoas	21RSemiMemb	22RBicFemLong	23RRecFem	24RVastMed	25RVastLat	26RGasMed	27RTibAnt	28RTibPost	29RPeroneusLong	30RSol	31RExtDigLong	32RFlexDigLong
0.965	-0.02533	-0.62546	-0.046844	-0.036926	0.014038	0.018768	0.075073	0.018005	0.061035	-0.045624	-0.015564	0.004272	-0.12756	-0.11169	0.058899	0.012054	0.011749	0.004425	-0.53055	0.05722	-0.19943	-0.3096	0.15045	-0.23285	-0.4277	-0.076752	-0.18982	-0.40344	0.076599	-0.26855	-0.000916	0.017242
0.966	-0.019531	-0.5043	-0.032196	-0.028534	0.008087	0.001831	0.07431	0.015564	0.057678	-0.035095	0.082092	0.00473	-0.11185	-0.029907	0.19409	0.005035	0.043182	-0.028992	-0.26199	0.086365	-0.1355	-0.31876	0.10498	-0.17212	-0.27222	-0.057373	-0.083466	-0.31586	0.11322	-0.50079	-0.002747	0.009613
0.967	-0.023346	-0.36331	0.001373	-0.022583	0.011902	0.017548	0.078583	0.029449	0.032501	-0.044861	0.19531	0.003052	-0.10651	-0.022125	0.30304	-0.001984	0.040283	0.004883	-0.327	0.14572	-0.10269	-0.21774	0.068054	-0.14618	-0.17273	-0.022125	-0.00473	-0.006409	-0.3479	-0.34622	-0.005341	-0.003662
0.968	-0.029449	-0.23132	0.007172	-0.056915	0.009918	-0.010986	0.05127	0.027618	0.050507	-0.039063	0.18738	0.005493	-0.071564	-0.10437	0.085144	0.006409	-0.011444	-0.024109	-0.39169	0.041656	-0.16968	-0.15961	0.23575	-0.072021	-0.14206	-0.003204	0.10239	-0.33676	-0.24674	-0.14435	-0.001984	-0.019836
0.969	-0.01358	-0.09079	0.006104	-0.03479	0.018158	0.008392	0.054626	0.027771	0.038147	-0.04776	0.17364	0.009155	-0.011444	-0.024109	0.033264	0.011749	-0.008392	-0.13046	1.0486	-0.058441	-0.13794	-0.21057	0.31616	-0.10971	-0.17685	0.040131	0.094604	0.12924	0.23178	0.30533	-0.00061	-0.028381
0.97	-0.012665	-0.06897	-0.058594	0.001373	0.010681	0.01236	0.052032	0.024109	0.026398	-0.086975	-0.14084	0.003052	-0.020905	0.028839	0.14206	0.00473	-0.020599	-0.2446	0.70175	0.021057	0.045929	-0.24597	0.29114	-0.003357	-0.19943	0.052032	-0.02533	0.45395	0.30655	0.003357	-0.005188	-0.020752
0.971	-0.003662	-0.11505	-0.063171	0.016327	0.007019	-0.007935	-0.010681	0.023346	0.017395	-0.028534	0.005341	0.005493	-0.081635	0.068512	0.30579	0.00824	-0.024872	-0.4808	-0.23651	0.053558	0.25848	-0.38147	0.25207	-0.010529	-0.18784	0.011749	-0.040131	0.48828	0.21515	0.091553	0.001526	-0.00885
0.972	-0.007324	-0.10559	-0.042725	0.011902	0.014801	-0.00061	-0.088501	0.027313	0.018463	-0.045624	-0.003204	0.010529	-0.061646	0.048981	0.457	0.018463	-0.008698	-0.50354	-1.0468	0.099792	0.26733	-0.65338	0.090485	-0.01236	-0.1268	-0.017242	0.088501	0.35049	0.14877	0.41336	-0.003204	-0.005951
0.973	-0.002899	-0.06424	-0.03479	-0.001526	0.012207	0.0177	-0.112	0.024567	0.023804	-0.027618	-0.21439	0.010223	-0.10544	0.049591	0.44311	0.022888	0.006714	-0.52429	-1.2276	0.052338	0.13306	-0.72784	-0.018463	-0.056152	-0.066223	-0.022278	0.046692	0.23056	0.071411	0.439	-0.000305	-0.007935
0.974	-0.008087	0.00061	-0.023804	-0.020447	0.006256	0.01297	-0.005493	0.011902	0.027771	-0.021362	-0.076599	0.007477	-0.17029	0.11231	0.51483	0.009918	0.04303	-0.60394	-1.7673	-0.070648	0.13443	-0.69641	0.090179	-0.040894	-0.023499	-0.062866	0.01236	0.04364	-0.019531	0.25146	-0.001526	-0.016632
0.975	0.000153	0.054321	0.000305	-0.037842	0.009308	0.01236	0.13931	0.009155	0.035095	-0.019684	0.08194	0.012054	-0.19699	0.24933	1.0092	0.003204	-0.005188	-0.65094	-1.5408	-0.16708	0.089874	-0.57281	0.14404	0.19547	0.060577	-0.046387	0.006104	-0.042725	0.14694	-0.3302	-0.000153	-0.012665
0.976	0.001221	0.14725	0.001221	-0.031281	0.00412	0.008087	0.20767	0.015259	0.042267	-0.041351	0.089417	0.006866	-0.13626	0.25635	-0.020142	-0.007782	0.024109	-0.66788	-1.0181	-0.14923	0.097961	-0.33112	0.27451	0.22766	0.005798	-0.030823	-0.2095	-0.03006	0.24353	-0.53574	-0.002441	-0.006409
0.977	-0.003204	0.21912	0.003662	-0.01709	0.001373	-0.001984	0.25787	0.005798	0.055084	-0.054016	-0.075378	0.015717	0.028687	0.20813	-0.068054	-0.010376	0.051575	-0.74249	-0.42648	-0.05661	-0.077972	-0.1683	0.22583	0.13626	0.016632	-0.050049	-0.64407	-0.072327	0.018158	-0.083008	-0.000916	-0.022888
0.978	0.038147	0.25681	-0.031433	-0.011597	0.006866	-0.006256	0.31128	0.005188	0.054932	-0.044708	-0.034027	0.010834	0.041046	0.19959	-1.1215	-0.000458	-0.018921	-0.83405	-0.21774	0.090485	-0.16846	-0.14557	0.17212	0.31082	0.045166	-0.026398	-0.39078	-0.095367	-0.12619	0.040283	-0.005188	-0.021362
0.979	-0.039215	0.30441	-0.039368	-0.021362	0.002441	0.009155	0.28275	0.007477	0.060272	-0.046997	0.056915	0.010834	-0.020142	0.087433	-0.72235	0.012665	-0.024261	-0.9201	-0.73837	0.25909	-0.13519	0.063782	0.29617	0.26871	-0.099945	0.044098	0.33218	-0.084839	-0.10757	0.085297	-0.003052	-0.009308
0.98	0.001984	0.30212	-0.03479	-0.014038	0.00473	0.006409	0.23514	0.00351	0.036163	-0.012512	0.11185	0.006561	-0.097198	0.015106	-0.28946	-0.000763	-0.052643	-0.93964	-0.77438	0.26199	-0.057068	0.37521	0.25665	0.3038	-0.12253	0.044098	1.2079	-0.045013	-0.08316	0.2742	-0.003357	-0.000763
0.981	0.004272	0.31601	-0.04425	-0.017395	-0.003357	0.012512	0.25116	0.000763	0.036926	-0.00473	0.14923	-0.009308	-0.061035	0.023651	-0.63461	0.001221	-0.077209	-1.0406	-0.58945	0.1358	0.040436	0.26001	0.12039	0.12512	-0.19394	0.030212	1.6154	-0.044708	0.058289	0.85892	-0.004272	0.010834
0.982	-0.000916	0.33234	-0.031281	-0.024872	0.010529	-0.006409	0.33341	0.001984	0.020599	0.015869	0.13031	0.007935	-0.029602	0.040588	-0.33905	-0.015106	-0.04776	-1.0422	-0.54214	0.070038	0.029907	-0.1712	0.27191	-0.020294	-0.16922	0.036011	1.4381	-0.061035	-0.027008	1.5985	-0.003357	0.012207
0.983	-0.007629	0.31296	-0.031281	-0.01236	0.010834	-0.003204	0.54627	0.005646	0.00351	0.049438	0.15976	0.002136	-0.058289	-0.016632	-0.2739	-0.01709	-0.063782	-1.2636	-0.71121	0.079346	0.099945	-0.40283	0.32562	0.039063	-0.037994	0.029602	1.0355	-0.05661	-0.03006	1.2543	-0.00351	0.01358
0.984	-0.023041	0.30899	0.008698	0.013275	0.007172	-0.006409	0.62943	0.010376	0.00824	0.06897	0.10635	0.011292	-0.11505	-0.062866	-0.20477	-0.017242	-0.03952	-1.3182	-0.70313	0.045471	-0.08728	-0.37293	0.29144	0.093536	0.38055	0.040741	-0.28915	-0.15595	0.12787	0.92163	-0.000763	0.008698
0.985	-0.01297	0.29144	-0.00351	0.026093	0.007629	0.011139	0.74158	0.017242	0.004272	0.056458	-0.014648	0.00946	-0.088806	-0.1033	-0.096741	-0.009613	-0.013428	-1.3573	-0.70023	-0.006104	-0.22232	-0.55512	0.43243	-0.009308	0.41016	0.050049	-1.0547	-0.060577	0.16388	0.26428	-0.00412	0.014038
0.986	-0.013123	0.26093	-0.072479	0.021362	0.01236	0.003662	0.75287	0.01709	0.010223	0.055542	-0.013123	0.013123	-0.050201	-0.089874	0.22247	-0.008087	0.001068	-1.4571	-0.7399	0.0177	-0.017395	-0.68176	0.38177	-0.011902	0.25833	0.061035	-1.0545	-0.083466	0.23743	-0.23377	0.005646	0.015106
0.987	-0.014954	0.21622	-0.070801	-0.00885	0.015869	0.002289	0.62851	0.021667	-0.001984	0.046539	-0.029602	0.011902	-0.036926	-0.00061	0.44006	0.000305	0.033569	-1.4655	-0.7428	-0.048523	0.11414	-0.5864	0.24948	-0.062714	0.088654	0.044708	-0.63843	-0.089264	0.12619	-0.271	-0.003204	0.006866
0.988	-0.015717	0.25787	-0.046997	-0.021667	0.016785	-0.010681	0.51163	0.023041	-0.001221	0.031128	-0.12634	0.011292	0.061798	-0.003052	0.072937	0.003815	0.044556	-1.272	-0.56122	-0.021515	0.059357	-0.55374	0.15839	-0.008087	0.044403	-0.007019	-0.35202	-0.13763	0.2121	-0.14694	-0.001831	0.001831
0.989	-0.003967	0.2858	-0.037384	-0.005951	0.012817	-0.003357	0.43732	0.014954	-0.022583	0.042267	-0.019073	0.014801	0.037384	-0.028687	0.070343	-0.004578	-0.016785	-1.0635	-0.64041	0.029144	0.3006	-0.66299	-0.066681	0.097198	0.014038	-0.030518	-0.27878	-0.11612	0.24567	0.050507	-0.001831	0.003357
0.99	-0.001831	0.25482	-0.036469	0.006714	0.023041	-0.013275	0.3006	0.022736	-0.032654	0.082092	0.025024	0.01358	-0.049438	-0.059052	0.23148	-0.003052	-0.049286	-0.97137	-0.99716	0	0.22629	-0.62958	-0.043335	0.21103	-0.21561	-0.039063	-0.29511	0.033264	0.2713	0.29068	-0.003357	-0.002594
0.991	0.000763	0.25146	-0.028992	0.009766	0.009613	-0.014801	0.10971	0.020905	-0.011749	0.071106	0.11581	0.007172	-0.031281	0.007477	0.062561	-0.014191	0.00824	-0.81116	-0.74966	0.000916	-0.005341	-0.49393	0.078125	-0.004883	-0.41412	-0.036316	-0.12421	0.054169	0.18936	0.35996	0.002594	-0.007019
